<mxfile host="app.diagrams.net" modified="2021-09-30T06:54:06.327Z" agent="5.0 (Macintosh; Intel Mac OS X 10_15_7) AppleWebKit/537.36 (KHTML, like Gecko) Chrome/91.0.4472.114 Safari/537.36" etag="uSduyotDBxDH3CbEsLwm" version="15.3.8" type="github">
  <diagram id="-UQPJfX9kfppx-DOzCiM" name="Page-1">
    <mxGraphModel dx="2125" dy="706" grid="1" gridSize="10" guides="1" tooltips="1" connect="1" arrows="1" fold="1" page="1" pageScale="1" pageWidth="827" pageHeight="1169" math="0" shadow="0">
      <root>
        <mxCell id="0" />
        <mxCell id="1" parent="0" />
        <mxCell id="--N74BLe7_7DkdRHaW-v-1" value="wwlchatlogicsvr" style="shape=umlLifeline;perimeter=lifelinePerimeter;whiteSpace=wrap;html=1;container=1;collapsible=0;recursiveResize=0;outlineConnect=0;" vertex="1" parent="1">
          <mxGeometry x="-20" y="280" width="100" height="600" as="geometry" />
        </mxCell>
        <mxCell id="--N74BLe7_7DkdRHaW-v-9" value="" style="html=1;points=[];perimeter=orthogonalPerimeter;" vertex="1" parent="--N74BLe7_7DkdRHaW-v-1">
          <mxGeometry x="40" y="100" width="10" height="310" as="geometry" />
        </mxCell>
        <mxCell id="--N74BLe7_7DkdRHaW-v-3" value="wwlmasgkv" style="shape=umlLifeline;perimeter=lifelinePerimeter;whiteSpace=wrap;html=1;container=1;collapsible=0;recursiveResize=0;outlineConnect=0;" vertex="1" parent="1">
          <mxGeometry x="390" y="280" width="100" height="600" as="geometry" />
        </mxCell>
        <mxCell id="--N74BLe7_7DkdRHaW-v-12" value="" style="html=1;points=[];perimeter=orthogonalPerimeter;" vertex="1" parent="--N74BLe7_7DkdRHaW-v-3">
          <mxGeometry x="40" y="180" width="10" height="80" as="geometry" />
        </mxCell>
        <mxCell id="--N74BLe7_7DkdRHaW-v-4" value="wwllogic" style="shape=umlLifeline;perimeter=lifelinePerimeter;whiteSpace=wrap;html=1;container=1;collapsible=0;recursiveResize=0;outlineConnect=0;" vertex="1" parent="1">
          <mxGeometry x="-270" y="280" width="100" height="600" as="geometry" />
        </mxCell>
        <mxCell id="--N74BLe7_7DkdRHaW-v-7" value="mysql" style="shape=umlLifeline;perimeter=lifelinePerimeter;whiteSpace=wrap;html=1;container=1;collapsible=0;recursiveResize=0;outlineConnect=0;" vertex="1" parent="1">
          <mxGeometry x="950" y="280" width="100" height="600" as="geometry" />
        </mxCell>
        <mxCell id="--N74BLe7_7DkdRHaW-v-24" value="" style="html=1;points=[];perimeter=orthogonalPerimeter;" vertex="1" parent="--N74BLe7_7DkdRHaW-v-7">
          <mxGeometry x="40" y="520" width="10" height="80" as="geometry" />
        </mxCell>
        <mxCell id="--N74BLe7_7DkdRHaW-v-33" value="" style="html=1;points=[];perimeter=orthogonalPerimeter;" vertex="1" parent="--N74BLe7_7DkdRHaW-v-7">
          <mxGeometry x="50" y="325" width="10" height="60" as="geometry" />
        </mxCell>
        <mxCell id="--N74BLe7_7DkdRHaW-v-35" value="return" style="html=1;verticalAlign=bottom;endArrow=open;dashed=1;endSize=8;exitX=1;exitY=0.95;" edge="1" source="--N74BLe7_7DkdRHaW-v-33" parent="--N74BLe7_7DkdRHaW-v-7">
          <mxGeometry relative="1" as="geometry">
            <mxPoint x="280" y="382" as="targetPoint" />
          </mxGeometry>
        </mxCell>
        <mxCell id="--N74BLe7_7DkdRHaW-v-10" value="chat_msg" style="html=1;verticalAlign=bottom;endArrow=block;entryX=0;entryY=0;" edge="1" target="--N74BLe7_7DkdRHaW-v-9" parent="1" source="--N74BLe7_7DkdRHaW-v-4">
          <mxGeometry relative="1" as="geometry">
            <mxPoint x="160" y="380" as="sourcePoint" />
          </mxGeometry>
        </mxCell>
        <mxCell id="--N74BLe7_7DkdRHaW-v-11" value="return" style="html=1;verticalAlign=bottom;endArrow=open;dashed=1;endSize=8;exitX=0;exitY=0.95;" edge="1" source="--N74BLe7_7DkdRHaW-v-9" parent="1" target="--N74BLe7_7DkdRHaW-v-4">
          <mxGeometry relative="1" as="geometry">
            <mxPoint x="160" y="456" as="targetPoint" />
          </mxGeometry>
        </mxCell>
        <mxCell id="--N74BLe7_7DkdRHaW-v-13" value="&lt;div style=&quot;color: rgb(51 , 51 , 51) ; background-color: rgb(253 , 246 , 227) ; font-family: &amp;#34;menlo&amp;#34; , &amp;#34;monaco&amp;#34; , &amp;#34;courier new&amp;#34; , monospace ; font-size: 14px ; line-height: 21px&quot;&gt;&lt;span style=&quot;color: #268bd2&quot;&gt;AddMsg&lt;/span&gt;&lt;/div&gt;" style="html=1;verticalAlign=bottom;endArrow=block;entryX=0;entryY=0;" edge="1" target="--N74BLe7_7DkdRHaW-v-12" parent="1" source="--N74BLe7_7DkdRHaW-v-1">
          <mxGeometry relative="1" as="geometry">
            <mxPoint x="360" y="490" as="sourcePoint" />
          </mxGeometry>
        </mxCell>
        <mxCell id="--N74BLe7_7DkdRHaW-v-14" value="return" style="html=1;verticalAlign=bottom;endArrow=open;dashed=1;endSize=8;exitX=0;exitY=0.95;" edge="1" source="--N74BLe7_7DkdRHaW-v-12" parent="1" target="--N74BLe7_7DkdRHaW-v-1">
          <mxGeometry relative="1" as="geometry">
            <mxPoint x="250" y="566" as="targetPoint" />
          </mxGeometry>
        </mxCell>
        <mxCell id="--N74BLe7_7DkdRHaW-v-15" value="mq" style="shape=umlLifeline;perimeter=lifelinePerimeter;whiteSpace=wrap;html=1;container=1;collapsible=0;recursiveResize=0;outlineConnect=0;" vertex="1" parent="1">
          <mxGeometry x="590" y="280" width="100" height="600" as="geometry" />
        </mxCell>
        <mxCell id="--N74BLe7_7DkdRHaW-v-17" value="" style="html=1;points=[];perimeter=orthogonalPerimeter;" vertex="1" parent="--N74BLe7_7DkdRHaW-v-15">
          <mxGeometry x="40" y="305" width="10" height="80" as="geometry" />
        </mxCell>
        <mxCell id="--N74BLe7_7DkdRHaW-v-16" value="oss" style="shape=umlLifeline;perimeter=lifelinePerimeter;whiteSpace=wrap;html=1;container=1;collapsible=0;recursiveResize=0;outlineConnect=0;" vertex="1" parent="1">
          <mxGeometry x="770" y="280" width="110" height="600" as="geometry" />
        </mxCell>
        <mxCell id="--N74BLe7_7DkdRHaW-v-20" value="" style="html=1;points=[];perimeter=orthogonalPerimeter;" vertex="1" parent="--N74BLe7_7DkdRHaW-v-16">
          <mxGeometry x="40" y="420" width="10" height="80" as="geometry" />
        </mxCell>
        <mxCell id="--N74BLe7_7DkdRHaW-v-18" value="&lt;div style=&quot;color: rgb(51 , 51 , 51) ; background-color: rgb(253 , 246 , 227) ; font-family: &amp;#34;menlo&amp;#34; , &amp;#34;monaco&amp;#34; , &amp;#34;courier new&amp;#34; , monospace ; font-size: 14px ; line-height: 21px&quot;&gt;&lt;span style=&quot;color: #268bd2&quot;&gt;AddJobSendChatAsync&lt;/span&gt;&lt;/div&gt;" style="html=1;verticalAlign=bottom;endArrow=block;entryX=0;entryY=0;" edge="1" target="--N74BLe7_7DkdRHaW-v-17" parent="1" source="--N74BLe7_7DkdRHaW-v-1">
          <mxGeometry relative="1" as="geometry">
            <mxPoint x="560" y="585" as="sourcePoint" />
          </mxGeometry>
        </mxCell>
        <mxCell id="--N74BLe7_7DkdRHaW-v-19" value="return" style="html=1;verticalAlign=bottom;endArrow=open;dashed=1;endSize=8;exitX=0;exitY=0.95;" edge="1" source="--N74BLe7_7DkdRHaW-v-17" parent="1" target="--N74BLe7_7DkdRHaW-v-1">
          <mxGeometry relative="1" as="geometry">
            <mxPoint x="560" y="661" as="targetPoint" />
          </mxGeometry>
        </mxCell>
        <mxCell id="--N74BLe7_7DkdRHaW-v-21" value="&lt;div style=&quot;color: rgb(51 , 51 , 51) ; background-color: rgb(253 , 246 , 227) ; font-family: &amp;#34;menlo&amp;#34; , &amp;#34;monaco&amp;#34; , &amp;#34;courier new&amp;#34; , monospace ; font-size: 14px ; line-height: 21px&quot;&gt;&lt;span style=&quot;color: #268bd2&quot;&gt;logOssMsgData&lt;/span&gt;&lt;/div&gt;" style="html=1;verticalAlign=bottom;endArrow=block;entryX=0;entryY=0;" edge="1" target="--N74BLe7_7DkdRHaW-v-20" parent="1" source="--N74BLe7_7DkdRHaW-v-15">
          <mxGeometry relative="1" as="geometry">
            <mxPoint x="740" y="700" as="sourcePoint" />
          </mxGeometry>
        </mxCell>
        <mxCell id="--N74BLe7_7DkdRHaW-v-22" value="return" style="html=1;verticalAlign=bottom;endArrow=open;dashed=1;endSize=8;exitX=0;exitY=0.95;" edge="1" source="--N74BLe7_7DkdRHaW-v-20" parent="1" target="--N74BLe7_7DkdRHaW-v-15">
          <mxGeometry relative="1" as="geometry">
            <mxPoint x="740" y="776" as="targetPoint" />
          </mxGeometry>
        </mxCell>
        <mxCell id="--N74BLe7_7DkdRHaW-v-25" value="offline_statistic" style="html=1;verticalAlign=bottom;endArrow=block;" edge="1" target="--N74BLe7_7DkdRHaW-v-24" parent="1" source="--N74BLe7_7DkdRHaW-v-16">
          <mxGeometry relative="1" as="geometry">
            <mxPoint x="830" y="800" as="sourcePoint" />
          </mxGeometry>
        </mxCell>
        <mxCell id="--N74BLe7_7DkdRHaW-v-26" value="return" style="html=1;verticalAlign=bottom;endArrow=open;dashed=1;endSize=8;exitX=0;exitY=0.95;" edge="1" source="--N74BLe7_7DkdRHaW-v-24" parent="1" target="--N74BLe7_7DkdRHaW-v-16">
          <mxGeometry relative="1" as="geometry">
            <mxPoint x="920" y="876" as="targetPoint" />
          </mxGeometry>
        </mxCell>
        <mxCell id="--N74BLe7_7DkdRHaW-v-27" value="&lt;div style=&quot;color: rgb(51 , 51 , 51) ; background-color: rgb(253 , 246 , 227) ; font-family: &amp;#34;menlo&amp;#34; , &amp;#34;monaco&amp;#34; , &amp;#34;courier new&amp;#34; , monospace ; font-size: 14px ; line-height: 21px&quot;&gt;&lt;span style=&quot;color: #268bd2&quot;&gt;AES_ECBEncrypt&amp;nbsp;&lt;/span&gt;&lt;/div&gt;&lt;div style=&quot;color: rgb(51 , 51 , 51) ; background-color: rgb(253 , 246 , 227) ; font-family: &amp;#34;menlo&amp;#34; , &amp;#34;monaco&amp;#34; , &amp;#34;courier new&amp;#34; , monospace ; font-size: 14px ; line-height: 21px&quot;&gt;&lt;span style=&quot;color: #268bd2&quot;&gt;秘钥hardcode&lt;/span&gt;&lt;/div&gt;" style="text;html=1;align=center;verticalAlign=middle;resizable=0;points=[];autosize=1;strokeColor=none;fillColor=none;" vertex="1" parent="1">
          <mxGeometry x="670" y="600" width="140" height="50" as="geometry" />
        </mxCell>
        <mxCell id="--N74BLe7_7DkdRHaW-v-29" value="&lt;div style=&quot;color: rgb(51 , 51 , 51) ; background-color: rgb(253 , 246 , 227) ; font-family: &amp;#34;menlo&amp;#34; , &amp;#34;monaco&amp;#34; , &amp;#34;courier new&amp;#34; , monospace ; font-size: 14px ; line-height: 21px&quot;&gt;&lt;span style=&quot;color: rgb(38 , 139 , 210) ; font-family: &amp;#34;menlo&amp;#34; , &amp;#34;monaco&amp;#34; , &amp;#34;courier new&amp;#34; , monospace&quot;&gt;PKCS5_PBKDF2_HMAC_SHA1&lt;/span&gt;&lt;span style=&quot;color: #268bd2&quot;&gt;&amp;nbsp;签名算法生成key&lt;/span&gt;&lt;/div&gt;&lt;div style=&quot;color: rgb(51 , 51 , 51) ; background-color: rgb(253 , 246 , 227) ; font-family: &amp;#34;menlo&amp;#34; , &amp;#34;monaco&amp;#34; , &amp;#34;courier new&amp;#34; , monospace ; font-size: 14px ; line-height: 21px&quot;&gt;&lt;span style=&quot;color: #268bd2&quot;&gt;&lt;br&gt;&lt;/span&gt;&lt;/div&gt;&lt;div style=&quot;color: rgb(51 , 51 , 51) ; background-color: rgb(253 , 246 , 227) ; font-family: &amp;#34;menlo&amp;#34; , &amp;#34;monaco&amp;#34; , &amp;#34;courier new&amp;#34; , monospace ; font-size: 14px ; line-height: 21px&quot;&gt;&lt;div style=&quot;line-height: 21px&quot;&gt;&lt;span style=&quot;color: #268bd2&quot;&gt;Encrypt_CBC128_PKCS7_IVHead_Flags&lt;/span&gt;&lt;/div&gt;&lt;div style=&quot;line-height: 21px&quot;&gt;&lt;span style=&quot;color: #268bd2&quot;&gt;&amp;nbsp;加密 支持SM4/AES&lt;/span&gt;&lt;/div&gt;&lt;/div&gt;" style="text;html=1;align=center;verticalAlign=middle;resizable=0;points=[];autosize=1;strokeColor=none;fillColor=none;" vertex="1" parent="1">
          <mxGeometry x="75" y="350" width="320" height="90" as="geometry" />
        </mxCell>
        <mxCell id="--N74BLe7_7DkdRHaW-v-31" value="" style="shape=umlLifeline;participant=umlActor;perimeter=lifelinePerimeter;whiteSpace=wrap;html=1;container=1;collapsible=0;recursiveResize=0;verticalAlign=top;spacingTop=36;outlineConnect=0;" vertex="1" parent="1">
          <mxGeometry x="1220" y="280" width="20" height="600" as="geometry" />
        </mxCell>
        <mxCell id="--N74BLe7_7DkdRHaW-v-34" value="&lt;div style=&quot;color: rgb(51 , 51 , 51) ; background-color: rgb(253 , 246 , 227) ; font-family: &amp;#34;menlo&amp;#34; , &amp;#34;monaco&amp;#34; , &amp;#34;courier new&amp;#34; , monospace ; font-size: 14px ; line-height: 21px&quot;&gt;&lt;span style=&quot;color: #2aa198&quot;&gt;openapi rsa加密&lt;/span&gt;&lt;/div&gt;" style="html=1;verticalAlign=bottom;endArrow=block;entryX=1;entryY=0;" edge="1" target="--N74BLe7_7DkdRHaW-v-33" parent="1" source="--N74BLe7_7DkdRHaW-v-31">
          <mxGeometry relative="1" as="geometry">
            <mxPoint x="1070" y="605" as="sourcePoint" />
          </mxGeometry>
        </mxCell>
      </root>
    </mxGraphModel>
  </diagram>
</mxfile>
